<svg id="Layer_1" data-name="Layer 1" xmlns="http://www.w3.org/2000/svg" viewBox="0 0 1517.61 2022.84"><defs><style>.cls-1{fill:#fcaf17;}.cls-2{fill:#fdb913;}.cls-3{fill:#ffc222;}.cls-4{fill:#ffce71;}.cls-5{fill:#fec34e;}.cls-6{fill:#ffd990;}.cls-7{fill:#4b617d;}.cls-8{fill:#587592;}.cls-9{fill:#6786a0;}.cls-10{fill:#94a4b2;}.cls-11{fill:#8098ad;}.cls-12{fill:#afbac7;}</style></defs><path class="cls-1" d="M220.81,668.35c-24.07,247.65,67,475.14,280.91,605.42-89.89-191.64-96.39-434-76.48-640.83,18.78-130.16,53-266.63,4.15-394.78C386.85,129.79,302.63,87.07,202.49,44.53c26.72,109,60,201.19,57.33,316.87-2.3,103.75-30.73,204.08-39,307" transform="translate(-1.38 -1.43)"/><path class="cls-2" d="M707.62,709.18C534.74,851.45,448,1053.94,501.09,1273.09c64.9-179,214.76-337.51,359.08-456.34,94.89-70.9,203.55-135.87,254-248.66,41.83-96,15.46-176.79-21.26-267.73-52.33,86.49-89.84,166.47-165.11,238.32-67.58,64.4-149.44,110.18-220.22,170.5" transform="translate(-1.38 -1.43)"/><path class="cls-3" d="M985.85,1048.94c-198-19.07-380,53.81-484.3,224.83,153.37-71.94,347.25-77.14,512.53-61.14,104.25,14.95,213.49,42.4,315.94,3.27,86.78-34,120.92-101.48,155-181.66-87.24,21.55-161,48.14-253.48,46.13-83-2-163.35-24.7-245.64-31.43" transform="translate(-1.38 -1.43)"/><path class="cls-4" d="M670.87,1636.83c14.37-148.6-40.28-285.11-168.61-363.23,53.82,114.91,57.8,260.33,45.87,384.49-11.25,78.12-31.75,160-2.51,236.81,25.53,65,76.23,90.72,136.22,116.35-16.09-65.44-36.09-120.89-34.45-190.35,1.43-62.26,18.4-122.32,23.48-184.07" transform="translate(-1.38 -1.43)"/><path class="cls-5" d="M940.53,1433.88c-110.6-134.41-268.1-201.84-438.64-160.45,139.5,50.4,262.53,167,355.06,279.23,55.27,73.76,105.8,158.18,193.46,197.59,74.51,32.42,137.43,11.93,208.21-16.56-67.29-40.73-129.37-70-185.45-128.52-50.07-52.51-85.68-116.18-132.64-171.29" transform="translate(-1.38 -1.43)"/><path class="cls-6" d="M386.51,1583.57c96.1-79,144.23-191.69,114.72-313.34-36.14,99.47-119.34,187.59-199.56,253.61-52.6,39.41-113,75.53-141,138-23.28,53.43-8.66,98.29,11.67,148.86,29.15-48.14,49.94-92.4,91.81-132.47,37.48-36,83-61.24,122.32-94.69" transform="translate(-1.38 -1.43)"/><path class="cls-6" d="M258.19,1382.71c99.08,9.67,190-26.63,242.11-112.39-76.62,36-173.56,38.64-256.22,30.66-52.13-7.39-106.69-21.09-157.93-1.6-43.4,16.89-60.57,50.82-77.54,90.82,43.64-10.76,80.52-24.12,126.81-23,41.53.92,81.45,12.26,122.77,15.53" transform="translate(-1.38 -1.43)"/><path class="cls-7" d="M353,616.61c-72.84,237.91-28.86,478.74,154.82,649.09-49.81-205.62-8.06-444.42,52.46-643.08,44.36-124,105-251,82.58-386.18-20-114.67-94.17-173.39-183.89-235,4.66,112.27,18.78,209.14-6.68,322.21-23.05,101-70.77,193.8-99.29,293" transform="translate(-1.38 -1.43)"/><path class="cls-8" d="M822,753.33c-197.78,105-323,286.32-314.52,511.7C606.52,1102.33,785,977,950,889c107.11-50.6,226.44-92.86,298.35-193.12,60.14-85.68,50.31-170.24,32.46-266.59C1212.42,503.7,1159.7,574.43,1071.49,630c-79,49.87-168.18,78.43-249.54,123.37" transform="translate(-1.38 -1.43)"/><path class="cls-9" d="M1027.05,1141.64c-190.39-58.12-383.1-22.8-519.4,124.06,164.52-39.88,355.5-6.64,514.62,41.92,99.09,35.53,200.64,83.92,308.77,66.11,91.72-16,138.72-75.43,188-147.15-89.72,3.78-167.3,15.07-257.56-5.42-80.94-18.28-155-56.5-234.39-79.52" transform="translate(-1.38 -1.43)"/><path class="cls-10" d="M601.27,1655.07c43.85-142.72,17.34-287.22-92.87-389.37,30,123.32,4.79,266.63-31.55,385.93-26.45,74.17-62.87,150.28-49.47,231.68,12,68.63,56.49,103.83,110.26,141-2.7-67.46-11.3-125.59,4-193.46,13.9-60.66,42.43-116.19,59.6-175.74" transform="translate(-1.38 -1.43)"/><path class="cls-11" d="M906.17,1510c-81.7-153.82-222.74-251.18-398.06-244.54,126.55,77,224.08,216,292.43,344.25,39.39,83.26,72.24,176.08,150.32,231.94,66.46,46.72,132.31,39.16,207.2,25.21-57.8-53.09-112.82-94.09-156.08-162.64-38.77-61.58-61-131.06-95.81-194.22" transform="translate(-1.38 -1.43)"/><path class="cls-12" d="M333.34,1546.45c109.75-58.56,179.51-159.11,174.77-284.19-55.16,90.21-154.45,160-246,208.83-59.52,28-125.72,51.58-165.58,107.28C63,1625.92,68.42,1673,78.38,1726.47c38-41.33,67.24-80.64,116.26-111.56,43.81-27.64,93.42-43.51,138.7-68.46" transform="translate(-1.38 -1.43)"/><path class="cls-12" d="M247.56,1324.17c95.15,29.15,191.46,11.51,259.58-61.91-82.29,19.9-177.84,3.27-257.22-21.12-49.65-17.76-100.4-42-154.57-33.09-45.7,8.19-69.23,37.85-94,73.61,44.95-1.77,83.71-7.48,128.91,2.77,40.45,9.16,77.46,28.23,117.27,39.74" transform="translate(-1.38 -1.43)"/></svg>